<svg xmlns="http://www.w3.org/2000/svg" viewBox="0 0 128 128" role="img" aria-label="Docket">
  <rect width="128" height="128" rx="30" fill="#f3f6f9"/>
  <!-- Bold serif D -->
  <path
    fill="#1a2332"
    d="M34 24h28.5c24.2 0 39.5 13.4 39.5 40S86.7 104 62.5 104H34V24zm16 14v52h13.2c14.8 0 23.8-8.4 23.8-26S78 38 63.2 38H50z"
  />
  <!-- Teal completion wedge -->
  <path
    fill="#0f6e56"
    d="M68 54c9.8 4.2 15.6 12.2 15.6 22.4 0 7.2-3.1 13.1-8.4 17.1H61.5c.9-4.1 1.4-8.5 1.4-13.3C62.9 69.4 64.8 60.8 68 54z"
  />
  <!-- Check -->
  <path
    fill="none"
    stroke="#f3f6f9"
    stroke-width="5.5"
    stroke-linecap="round"
    stroke-linejoin="round"
    d="M65.5 74.5l5.8 5.8 11.2-12.6"
  />
  <!-- Docket paper edges -->
  <path
    fill="none"
    stroke="#1a2332"
    stroke-width="2.6"
    stroke-linecap="round"
    d="M54 98c12.5 2.4 24.2.4 32.8-5.2"
  />
  <path
    fill="none"
    stroke="#1a2332"
    stroke-width="2.3"
    stroke-linecap="round"
    opacity="0.7"
    d="M52.5 103.5c13.8 2.6 26.6.2 36-6"
  />
</svg>
